<svg xmlns="http://www.w3.org/2000/svg" width="32px" height="32px" viewBox="0 0 24 24">
  <defs>
    <linearGradient id="gradientClima" x1="0%" y1="0%" x2="100%" y2="100%">
      <stop offset="0%" style="stop-color:rgb(59, 88, 186); stop-opacity: 1" />
      <stop offset="100%" style="stop-color:rgb(30, 115, 61); stop-opacity: 1" />
    </linearGradient>
    <linearGradient id="gradientTrack" x1="0%" y1="0%" x2="100%" y2="100%">
      <stop offset="0%" style="stop-color:rgb(235, 51, 51); stop-opacity: 1" />
      <stop offset="100%" style="stop-color:rgb(209, 135, 6); stop-opacity: 1" />
    </linearGradient>
  </defs>
  <path d="M21.449,10.332l-1.708-0.98l0.515-1.91c0.081-0.323-0.01-0.657-0.243-0.889 c-0.232-0.232-0.566-0.323-0.889-0.243l-1.9,0.515l-0.99-1.708c-0.172-0.293-0.465-0.465-0.798-0.465 c-0.334,0-0.627,0.172-0.798,0.465l-0.98,1.708l-1.91-0.515c-0.323-0.081-0.657,0.01-0.889,0.243 c-0.243,0.232-0.323,0.566-0.243,0.889l0.283,1.041c-0.303-0.071-0.616-0.101-0.93-0.101c-1.92,0-3.608,1.273-4.154,3.072 c-1.304,0.01-2.516,0.697-3.133,1.809c-0.768,1.375-0.778,2.88-0.04,4.133c0.707,1.203,2.011,1.951,3.396,1.951h9.439 c1.819,0,3.295-1.486,3.295-3.305c0-0.061,0-0.131-0.01-0.192l0.364,0.101c0.081,0.02,0.162,0.03,0.243,0.03 c0.243,0,0.475-0.091,0.647-0.273c0.232-0.232,0.323-0.566,0.243-0.889l-0.515-1.9l1.708-0.99c0.283-0.172,0.455-0.465,0.455-0.798 C21.904,10.797,21.732,10.504,21.449,10.332z M15.476,18.337H6.037c-1.031,0-2.001-0.556-2.527-1.445 c-0.556-0.95-0.536-2.082,0.051-3.133c0.445-0.798,1.324-1.294,2.335-1.294c0.071,0,0.141,0.01,0.212,0.01l0.515-0.02l0.091-0.435 c0.323-1.516,1.688-2.628,3.254-2.628s2.9,1.071,3.244,2.597c0.061,0.283,0.313,0.475,0.586,0.475h0.081 c0.384-0.04,1.051,0.02,1.314,0.849c0.071,0.253,0.293,0.435,0.556,0.465c1.142,0.142,2.011,1.112,2.011,2.264 C17.76,17.306,16.729,18.337,15.476,18.337z M13.677,10.464c0.273-0.728,0.98-1.213,1.759-1.213c1.041,0,1.88,0.839,1.88,1.88 c0,0.738-0.424,1.405-1.102,1.708c-0.04-0.01-0.091-0.02-0.131-0.03c-0.394-0.97-1.213-1.334-1.971-1.354 C14.011,11.101,13.859,10.767,13.677,10.464z M19.175,12.081c-0.354,0.202-0.536,0.627-0.424,1.031l0.485,1.819l-0.738-0.192 c-0.253-0.576-0.657-1.071-1.182-1.415c0.637-0.536,1.011-1.334,1.011-2.193c0-1.597-1.294-2.89-2.89-2.89 c-1.001,0-1.92,0.526-2.446,1.354c-0.283-0.273-0.586-0.495-0.93-0.677l-0.424-1.587l1.829,0.485 c0.394,0.111,0.829-0.071,1.031-0.425l0.94-1.637l0.95,1.637c0.202,0.354,0.627,0.536,1.031,0.425l1.819-0.485L18.75,9.15 c-0.111,0.404,0.061,0.829,0.424,1.041l1.627,0.94L19.175,12.081z" fill="url(#gradientClima)"/>
</svg>
