<svg xmlns="http://www.w3.org/2000/svg" width="430" height="430" style="width:100%;height:100%;transform:translate3d(0,0,0);content-visibility:visible" viewBox="0 0 430 430"><defs><clipPath id="B"><path d="M0 0h430v430H0z"/></clipPath><clipPath id="I"><path d="M0 0h430v430H0z"/></clipPath><clipPath id="l"><path d="M0 0h430v430H0z"/></clipPath><clipPath id="q"><path d="M0 0h430v430H0z"/></clipPath><clipPath id="r"><path d="M0 0h430v430H0z"/></clipPath><clipPath id="m"><path d="M0 0h430v430H0z"/></clipPath><clipPath id="F"><path d="M0 0h430v430H0z"/></clipPath><clipPath id="x"><path d="M0 0h430v430H0z"/></clipPath><clipPath id="C"><path d="M0 0h430v430H0z"/></clipPath><clipPath id="z"><path d="M0 0h430v430H0z"/></clipPath><filter id="a" width="100%" height="100%" x="0%" y="0%" filterUnits="objectBoundingBox"><feComponentTransfer in="SourceGraphic"><feFuncA tableValues="1.0 0.0" type="table"/></feComponentTransfer></filter><filter id="J" width="300%" height="300%" x="-100%" y="-100%"><feGaussianBlur result="filter_result_0"/></filter><filter id="d" width="100%" height="100%" x="0%" y="0%" filterUnits="objectBoundingBox"><feComponentTransfer in="SourceGraphic"><feFuncA tableValues="1.0 0.0" type="table"/></feComponentTransfer></filter><filter id="H" width="300%" height="300%" x="-100%" y="-100%"><feGaussianBlur result="filter_result_0" stdDeviation="52.5 52.5"/></filter><filter id="g" width="100%" height="100%" x="0%" y="0%" filterUnits="objectBoundingBox"><feComponentTransfer in="SourceGraphic"><feFuncA tableValues="1.0 0.0" type="table"/></feComponentTransfer></filter><filter id="D" width="300%" height="300%" x="-100%" y="-100%"><feGaussianBlur result="filter_result_0"/></filter><mask id="p" mask-type="alpha"><g filter="url(#a)"><path fill="#fff" d="M0 0h430v430H0z" opacity="0"/><use xmlns:ns1="http://www.w3.org/1999/xlink" ns1:href="#b"/></g></mask><mask id="K" mask-type="alpha"><use xmlns:ns2="http://www.w3.org/1999/xlink" ns2:href="#c"/></mask><mask id="y" mask-type="alpha"><g filter="url(#d)"><path fill="#fff" d="M0 0h430v430H0z" opacity="0"/><use xmlns:ns3="http://www.w3.org/1999/xlink" ns3:href="#e"/></g></mask><mask id="G" mask-type="alpha"><use xmlns:ns4="http://www.w3.org/1999/xlink" ns4:href="#f"/></mask><mask id="A" mask-type="alpha"><g filter="url(#g)"><path fill="#fff" d="M0 0h430v430H0z" opacity="0"/><use xmlns:ns5="http://www.w3.org/1999/xlink" ns5:href="#h"/></g></mask><mask id="E" mask-type="alpha"><use xmlns:ns6="http://www.w3.org/1999/xlink" ns6:href="#k"/></mask><g id="c" fill-opacity="0" stroke-linecap="round" stroke-linejoin="round" clip-path="url(#l)" style="display:none"><g clip-path="url(#m)" mask="url(#p)" style="display:none"><path class="secondary" style="display:none"/><path class="secondary" style="display:none"/><path class="secondary" style="display:none"/><path class="secondary" style="display:none"/><path class="secondary" style="display:none"/><g style="display:none"><path class="secondary"/><path class="secondary"/></g></g><g clip-path="url(#q)" style="display:none"><path class="primary" style="display:none"/><path class="primary" style="display:none"/><path class="primary" style="display:none"/><path class="primary" style="display:none"/><path class="primary" style="display:none"/><path class="primary" style="display:none"/><path class="primary" style="display:none"/></g></g><g id="b" clip-path="url(#r)" style="display:none"><path style="display:none"/><path style="display:none"/><path style="display:none"/><path style="display:none"/><path style="display:none"/><path style="display:none"/><path style="display:none"/><g style="display:none"><path/><path fill-opacity="0" class="secondary"/></g></g><g id="f" fill-opacity="0" stroke-linecap="round" stroke-linejoin="round" clip-path="url(#x)" style="display:block"><g stroke="#08A88A" stroke-width="12.04" mask="url(#y)" style="display:block"><path d="M179.48 207.33c-3.17-17.67-.89-36.17 6.57-52.5 13.96-30.57 44.8-51.82 80.6-51.82 23.3 0 44.49 8.99 60.3 23.71m49.23 51.57c15.3 8.57 25.63 24.94 25.63 43.71 0 27.66-22.42 50.07-50.08 50.07H207.56c-33.47 0-60.59-27.12-60.59-60.59 0-25.89 16.24-47.99 39.08-56.65" class="secondary"/><path d="M376.077 176.967q.172-1.993.173-4.029c0-25.509-20.679-46.188-46.188-46.188q0 0 0 0c-25.509 0-46.187 20.679-46.187 46.188a46 46 0 0 0 3.916 18.64" class="secondary"/></g><path stroke="#121331" stroke-width="4.55" d="M-19.496-9.07c-1.457-4.037-5.312-6.93-9.851-6.93m63.933 2.588A33.5 33.5 0 0 1 37.367 0s.011 3.551-1.221 7.909" class="primary" style="display:block" transform="translate(156 242.584)scale(2.555)"/><path stroke="#121331" stroke-width="4.55" d="M34.663-13.18C29.536-25.199 17.614-33.625 3.722-33.625c-12.984 0-24.241 7.364-29.844 18.139A10.4 10.4 0 0 0-29.354-16c-5.779 0-10.463 4.685-10.463 10.464 0 .774.09 1.526.249 2.252-6.227 3.278-10.479 9.802-10.479 17.328 0 10.814 8.767 19.581 19.581 19.581h56.271c13.388 0 24.242-10.853 24.242-24.241 0-10.261-6.379-19.026-15.384-22.564" class="primary" style="display:block" transform="translate(156 242.584)scale(2.555)"/></g><g id="k" fill-opacity="0" stroke-linecap="round" stroke-linejoin="round" clip-path="url(#z)" style="display:none"><g mask="url(#A)" style="display:none"><path class="secondary"/><path class="secondary"/></g><path class="primary" style="display:none"/><path class="primary" style="display:none"/></g><path id="e" fill="red" d="M34.663-13.18C29.536-25.199 17.614-33.625 3.722-33.625c-12.984 0-24.241 7.364-29.844 18.139A10.4 10.4 0 0 0-29.354-16c-5.779 0-10.463 4.685-10.463 10.464 0 .774.09 1.526.249 2.252-6.227 3.278-10.479 9.802-10.479 17.328 0 10.814 8.767 19.581 19.581 19.581h56.271c13.388 0 24.242-10.853 24.242-24.241 0-10.261-6.379-19.026-15.384-22.564" style="display:block" transform="translate(156 242.584)scale(2.555)"/><path id="h" style="display:none"/></defs><g clip-path="url(#B)"><g clip-path="url(#C)" filter="url(#D)" mask="url(#E)" style="display:none"><g class="design"><path class="primary"/></g><g class="design"><path class="secondary"/></g></g><g clip-path="url(#F)" mask="url(#G)" style="display:block"><g filter="url(#H)" transform="rotate(-94 238.295 -17.065)scale(2.4)"><g class="design"><path fill="#4BE1EC" d="M0-250c137.975 0 250 112.025 250 250S137.975 250 0 250-250 137.975-250 0-137.975-250 0-250" class="primary"/></g><g class="design"><path fill="#CB5EEE" d="M113.242-295.384c97.478 0 176.5 79.022 176.5 176.5s-79.022 176.5-176.5 176.5c-43.948 0-74.396-34.057-105.29-60.631-37.631-32.369-71.21-62.338-71.21-115.869 0-97.478 79.022-176.5 176.5-176.5" class="secondary"/></g></g></g><g clip-path="url(#I)" filter="url(#J)" mask="url(#K)" style="display:none"><g class="design"><path class="primary"/></g><g class="design"><path class="secondary"/></g></g></g></svg>